<svg width="764" height="122" viewBox="0 0 764 122" fill="none" xmlns="http://www.w3.org/2000/svg">
<path d="M141.798 53.724V23.2044H173.95C185.117 23.2044 190.963 28.8678 190.963 38.6215C190.963 48.3752 184.967 53.8027 173.95 53.8027H141.798V53.724ZM120.438 119.562H141.798V73.8607H164.507L190.888 119.562H216.819L188.789 72.2876C203.029 67.568 212.697 55.1399 212.697 38.2282C212.697 16.9117 199.956 2.51709 176.498 2.51709H120.363V119.562H120.438ZM630.221 119.562H651.731V2.51709H630.221V119.562ZM750.21 59.3088C756.805 53.724 761.227 44.9142 761.227 34.138C761.227 14.9452 749.461 2.51709 727.501 2.51709H669.493V119.562H727.801C749.835 119.562 764 106.426 764 85.7382C763.925 73.6248 758.679 64.815 750.21 59.3088ZM725.028 23.283C734.321 23.283 739.193 27.5306 739.193 36.1045C739.193 45.2289 734.022 50.1057 725.028 50.1057H690.778V23.3617H725.028V23.283ZM725.403 98.7956H690.778V70.8717L726.002 70.7144C736.645 70.7144 742.116 75.0406 742.116 84.401C742.116 94.548 736.72 98.7956 725.403 98.7956ZM558.498 75.1193H616.281V50.0271H558.498V75.1193ZM478.081 54.196V23.519H511.057C521.1 23.519 527.021 28.8678 527.021 38.8575C527.021 48.8472 521.175 54.2747 511.057 54.2747H478.081V54.196ZM456.721 119.562H478.081V75.4339H513.455C535.115 75.4339 548.83 60.5674 548.83 38.7789C548.83 16.9117 535.115 2.43843 513.455 2.43843H456.721V119.562ZM343.328 75.0406C343.328 105.167 362.664 122 392.043 122C421.122 122 440.458 105.167 440.458 75.0406V2.51709H418.948V71.4223C418.948 91.323 408.531 101.077 392.043 101.077C375.18 101.077 364.837 91.4803 364.837 71.4223V2.51709H343.328V75.0406ZM241.551 61.0393C241.551 36.1831 254.892 20.6873 276.026 20.6873C297.086 20.6873 310.501 36.1831 310.501 61.0393C310.501 86.0529 297.236 101.313 276.026 101.313C254.892 101.313 241.551 85.8955 241.551 61.0393ZM219.742 61.0393C219.742 97.6944 242.226 122 276.026 122C309.902 122 332.311 97.5371 332.311 61.0393C332.311 24.3843 310.052 0 276.026 0C242.076 0.0786589 219.742 24.3056 219.742 61.0393ZM0 61.0393C0 98.009 21.9592 122 56.2095 122C89.4106 122 109.271 97.4584 109.271 62.3765V53.724H59.8069L43.094 73.8607H86.2629C83.5648 92.5029 72.3229 101.549 56.2095 101.549C34.9998 101.549 21.8093 85.8955 21.8093 61.0393C21.8093 36.1831 34.9249 20.4513 56.1346 20.4513C70.2994 20.4513 81.1666 28.4745 84.764 41.6892H107.023C102.676 16.2037 82.8903 0 56.1346 0C21.9592 0.0786589 0 24.1483 0 61.0393Z" fill="white"/>
</svg>
